<svg width="25" height="24" viewBox="0 0 25 24" fill="none" xmlns="http://www.w3.org/2000/svg">
<path d="M0.168444 4.9759C0.236288 6.07999 0.494008 7.16411 0.930279 8.18062C1.04442 8.45169 1.26038 8.66715 1.53172 8.78065C1.80306 8.89416 2.10811 8.89665 2.38127 8.78758C4.14381 8.07884 5.9346 7.46167 7.73946 6.88909C6.62663 7.32451 5.51566 7.76479 4.40948 8.21728C4.37757 8.22781 4.34666 8.23287 4.31411 8.24648L3.85825 8.43712C3.59493 8.55552 3.38794 8.77162 3.28097 9.03979C3.17401 9.30796 3.17546 9.6072 3.28501 9.87432C3.39457 10.1414 3.60365 10.3555 3.86811 10.4714C4.13256 10.5872 4.43168 10.5957 4.70231 10.4951C9.26178 8.6126 13.8938 6.91663 18.4956 5.14286C18.0041 7.03813 17.8317 9.002 17.9855 10.9539C18.1837 14.8255 17.7344 18.9354 18.7773 22.6781C18.8322 22.8136 18.9134 22.9369 19.0162 23.0409C19.119 23.1449 19.2414 23.2274 19.3763 23.2839C19.5112 23.3403 19.656 23.3694 19.8022 23.3696C19.9484 23.3698 20.0933 23.3411 20.2283 23.285L20.4407 23.1763C20.6669 23.0824 20.856 22.9168 20.979 22.705C21.102 22.4933 21.152 22.247 21.1215 22.004L21.1744 21.7505C21.236 21.5229 21.2082 21.2805 21.0968 21.0728C20.9853 20.8652 20.7986 20.708 20.575 20.6336C20.3499 19.212 20.2373 17.7749 20.2383 16.3357C20.4718 18.1099 20.8992 19.8531 21.5127 21.5341C21.8833 22.5313 23.6205 22.3877 23.6446 21.2531C23.6944 18.9095 23.0931 16.69 22.9166 14.3612C22.7181 11.7184 22.8978 9.06084 23.4502 6.46884C23.7067 5.79632 23.8839 5.09622 23.9783 4.38269C24.1793 3.6937 24.3969 3.008 24.65 2.33038C24.727 2.12773 24.7436 1.90712 24.6978 1.69523C24.6521 1.48333 24.5459 1.28923 24.3922 1.13638C24.2385 0.983518 24.0438 0.878452 23.8317 0.833882C23.6195 0.789314 23.399 0.807147 23.1968 0.885224C23.0677 0.938586 22.9367 0.987504 22.8074 1.04053C22.6797 0.806854 22.4712 0.627706 22.2209 0.536586C21.9707 0.445465 21.6959 0.448612 21.4478 0.545431C21.3171 0.588121 21.1851 0.626533 21.0542 0.668717C18.9989 0.137959 16.4915 0.548328 14.5949 0.794086C10.0382 1.38452 5.65647 2.96501 1.12783 3.72976C0.838078 3.77366 0.576495 3.92782 0.397718 4.16004C0.218942 4.39225 0.136798 4.68455 0.168444 4.9759ZM21.3048 4.03445C21.3392 4.02089 21.3735 4.00704 21.4078 3.99341C21.5457 4.35985 21.5764 4.75797 21.4964 5.14122C21.4723 5.24416 21.4519 5.3479 21.4288 5.451C21.4067 5.53595 21.3882 5.61846 21.3588 5.70821C20.9022 6.95797 20.5088 8.22991 20.18 9.51919C20.0579 7.62326 20.4463 5.72927 21.3048 4.03445ZM8.00991 4.48629C6.19134 5.04299 4.38747 5.64674 2.60674 6.32486C2.55123 6.12935 2.50608 5.93104 2.47149 5.73077C4.33127 5.37634 6.17243 4.94051 8.00991 4.48629Z" fill="#A8B3C1"/>
</svg>
