<svg width="86" height="75" viewBox="0 0 86 75" fill="none" xmlns="http://www.w3.org/2000/svg">
<path d="M84.8317 33.9779C82.2538 13.8256 60.5591 -2.38276 40.5639 0.289115C40.0853 0.353088 39.6123 0.429945 39.142 0.513043C39.0759 0.410754 38.9799 0.33126 38.8671 0.285325C38.7543 0.239389 38.6301 0.22923 38.5113 0.256222C35.5725 0.847243 32.6519 1.5125 29.826 2.36767C17.8953 4.6551 7.03773 11.3058 2.24848 23.1203C-5.41096 42.0153 7.52653 64.6643 25.5144 71.8647C25.934 72.0326 26.357 72.1906 26.7819 72.3433C32.241 74.771 38.2885 75.5581 44.1872 74.6087C53.8417 73.922 63.0723 70.3728 70.6998 64.4145C73.2642 62.3852 75.5046 59.9774 77.3441 57.2737C82.8522 51.1097 86.0124 43.2081 84.8317 33.9779ZM83.8232 35.8395C84.2229 40.8116 83.1864 45.7939 80.8371 50.1941C81.3291 48.7172 81.6923 47.2005 81.9225 45.661C82.7878 39.7961 81.6661 33.8478 79.3547 28.3932C78.5154 24.1886 76.7721 20.2167 74.2455 16.7527C68.5665 8.95132 59.5597 4.50228 50.3012 2.55319C47.0894 1.88432 43.8216 1.51966 40.5413 1.46403C60.6319 -1.25596 82.0855 15.5241 83.8232 35.8395ZM70.5047 61.9793C67.844 63.9125 64.9697 65.5333 61.9386 66.8095C70.7845 60.1682 77.4343 50.2369 79.4143 39.6967C79.7783 37.7574 79.9499 35.7869 79.9265 33.8139C81.2432 38.9383 81.379 44.3191 79.8465 49.4554C79.0432 52.0932 77.8162 54.5828 76.2137 56.8268C74.4938 58.7368 72.5805 60.4636 70.5047 61.9793H70.5047ZM40.9161 73.506C36.0167 73.584 31.1486 72.712 26.581 70.9381C23.2772 69.2918 20.3105 67.0419 17.8341 64.3046C18.0147 64.4456 18.1896 64.5931 18.3735 64.7303C27.0823 71.2259 38.3232 72.8837 48.9099 71.5287C50.0227 71.3863 51.1373 71.2027 52.2538 70.9779C49.8013 72.035 47.2386 72.8156 44.6132 73.3049C43.3808 73.4148 42.147 73.4855 40.916 73.506H40.9161ZM38.5463 70.6431C29.5687 70.0289 21.0968 66.5459 14.8872 59.959C14.546 59.5971 14.2175 59.2263 13.8971 58.85C13.7273 58.5487 13.5622 58.2444 13.4019 57.9371C4.75175 41.2655 10.5195 18.9494 25.2655 7.85942C31.7672 4.80423 38.6441 2.89412 46.1621 3.63269C57.5743 4.75386 67.6606 12.1251 74.1055 21.3224C75.77 23.6957 77.1713 26.2431 78.2846 28.9197C80.5744 41.9733 72.9842 55.9232 62.7898 64.4594C60.9417 66.0083 58.9691 67.4025 56.8922 68.6278C50.9451 70.3835 44.7327 71.0659 38.5462 70.6431H38.5463ZM34.7029 2.84013C35.4784 2.77249 36.2554 2.72309 37.0337 2.69193C35.3533 2.97667 33.6931 3.36974 32.0634 3.86866C32.7603 3.56171 33.4693 3.27502 34.1929 3.01401C34.3624 2.9529 34.5329 2.8981 34.7029 2.84013ZM24.7967 6.7201C21.3438 8.39344 17.9894 10.2629 14.75 12.3194C14.8287 12.231 14.9019 12.1383 14.9817 12.0507C19.0259 7.61299 24.4137 5.14849 30.0715 3.49053C28.2209 4.40842 26.4557 5.48921 24.7967 6.7201ZM12.654 14.9432C12.7786 14.9514 12.9025 14.9177 13.0058 14.8475C15.5621 13.2144 18.1542 11.6123 20.8009 10.1488C12.1995 18.653 7.52987 31.3357 8.31628 43.6364C8.53299 47.0017 9.18798 50.3243 10.2647 53.5201C7.59099 48.4174 6.1623 42.7545 6.09528 36.9941C5.93591 29.2075 8.12031 21.284 12.6539 14.9432H12.654ZM60.8238 7.35363C65.8477 9.75156 70.2093 13.3414 73.5285 17.8106C74.5859 19.2589 75.4988 20.8074 76.254 22.4339C75.5605 21.3158 74.8243 20.232 74.0508 19.1918C70.4936 14.3865 65.9926 10.3582 60.8238 7.35363H60.8238ZM1.3636 34.6348C1.25168 23.3303 7.6118 13.5875 17.2674 8.0716C18.0267 7.63783 18.7991 7.23282 19.5846 6.85658C16.7088 8.64173 14.1751 10.9265 12.1032 13.603C6.02434 21.4861 3.99449 32.1728 5.25154 41.9008C6.09353 48.3727 8.74494 54.4756 12.9009 59.5077C14.2911 62.0058 16.0183 64.3007 18.034 66.328C16.817 65.4677 15.6488 64.5404 14.5348 63.5504C10.4756 59.89 7.21194 55.4346 4.94622 50.4605C2.6805 45.4864 1.46107 40.0998 1.3636 34.6348ZM54.0356 71.5612C55.3846 70.9337 56.6999 70.2362 57.9762 69.4716C61.536 68.3126 64.9512 66.7496 68.1552 64.8132C66.9729 65.6632 65.7482 66.4527 64.486 67.1786C61.1936 69.0589 57.6843 70.5306 54.0356 71.5612H54.0356Z" fill="#4744C9"/>
</svg>
