<svg width="47" height="48" viewBox="0 0 47 48" fill="none" xmlns="http://www.w3.org/2000/svg">
<path fill-rule="evenodd" clip-rule="evenodd" d="M45.8544 6.09329C45.8156 5.98386 45.755 5.88341 45.6764 5.79799C45.6661 5.71063 45.6379 5.62632 45.5937 5.55029C45.5495 5.47426 45.4901 5.40813 45.4192 5.35601C45.3483 5.30389 45.2675 5.26688 45.1818 5.24729C45.096 5.2277 45.0071 5.22594 44.9207 5.24212C38.0699 6.08707 31.0386 5.59893 24.1411 5.63119C24.0012 4.2832 23.9425 2.92801 23.9653 1.57296C23.9896 0.582398 22.4801 0.661905 22.4385 1.635C22.3752 2.97342 22.4074 4.31465 22.5349 5.64848C19.1479 5.68615 15.7609 5.75206 12.374 5.8462C10.6141 5.89602 8.85639 5.95446 7.10076 6.02152C5.43958 5.94323 3.77471 6.02077 2.128 6.25313C0.380859 6.66998 0.415824 9.28924 1.46948 10.4396C2.19432 11.2342 3.10267 11.0722 4.05943 10.9288C4.06799 13.7156 4.08653 16.5024 4.11507 19.2893L4.05519 19.3726C4.02349 19.4126 4.00002 19.4585 3.98616 19.5076C3.9723 19.5568 3.96831 19.6082 3.97442 19.6588C3.98054 19.7095 3.99663 19.7585 4.02178 19.8029C4.04694 19.8473 4.08064 19.8863 4.12095 19.9176C4.15438 23.3091 4.19209 26.7004 4.23409 30.0913C4.24927 31.5995 4.22586 33.1146 4.27874 34.6247C4.20756 35.5611 4.48746 36.4905 5.06394 37.2318C5.6445 37.7328 6.39488 37.9923 7.16088 37.9572C8.90852 38.0822 10.6799 38.0837 12.4326 38.1256C14.9049 38.1827 17.3795 38.2198 19.8566 38.2369C17.6346 40.6507 15.371 43.0402 13.253 45.5381C13.1245 45.6869 13.0588 45.8799 13.07 46.0763C13.0811 46.2727 13.1682 46.457 13.3128 46.5904C13.4573 46.7238 13.6481 46.7957 13.8447 46.791C14.0414 46.7863 14.2285 46.7053 14.3665 46.5652C16.9122 43.8978 19.302 41.0599 21.7542 38.3041L21.7903 38.2534C22.1074 38.2545 22.423 38.2601 22.7383 38.2608C22.7911 41.0103 22.9054 43.7555 23.0813 46.4967C23.1466 47.4893 24.6943 47.4295 24.6245 46.4367C24.4321 43.7134 24.2974 40.9882 24.2205 38.2612C24.7155 38.2614 25.2104 38.2602 25.7052 38.2578C25.7255 38.3031 25.7522 38.3453 25.7845 38.383C28.3152 41.5515 31.1278 44.4843 34.1878 47.1452C34.3339 47.2713 34.5233 47.3356 34.7159 47.3247C34.9086 47.3137 35.0894 47.2282 35.2202 47.0864C35.351 46.9445 35.4215 46.7573 35.4169 46.5644C35.4122 46.3715 35.3327 46.188 35.1952 46.0526C32.5661 43.4841 29.9179 40.9842 27.4569 38.255C29.0376 38.2493 30.6199 38.237 32.2037 38.2181C35.1122 38.178 38.1943 38.3742 41.0547 37.7595C41.9678 37.6661 42.8249 37.2749 43.4938 36.6462C44.2073 35.7552 43.9848 34.4241 43.96 33.38C43.7897 26.0061 43.6194 18.6323 43.449 11.2586C46.4628 11.0853 46.7239 8.45416 45.8547 6.09318L45.8544 6.09329ZM12.3072 33.0671C11.2243 34.1299 10.143 35.1923 9.07748 36.2722L8.07937 36.2483C7.23967 36.2301 6.35259 36.1649 6.02848 35.3077C6.01563 35.273 6.00441 35.2371 5.99398 35.2005C7.51135 33.8905 8.92021 32.4389 10.3352 31.0134C10.4006 31.085 10.4801 31.1423 10.5688 31.1815C10.6574 31.2208 10.7532 31.2413 10.8502 31.2416C10.9471 31.2419 11.0431 31.2221 11.132 31.1835C11.2209 31.1448 11.3008 31.0881 11.3667 31.017C13.7125 28.5809 16.055 26.1394 18.3939 23.6925L20.1445 21.8581C20.4388 21.5531 20.7314 21.2457 21.0241 20.9428C21.2713 20.431 21.5264 20.4587 21.7892 21.0259C22.4401 21.5452 23.0224 22.145 23.5223 22.8109C24.0972 23.4072 24.6766 23.9996 25.254 24.5958C25.767 25.1215 26.377 26.0558 27.2472 25.8441C28.3154 25.5821 29.3985 23.9186 30.1367 23.1775C32.5618 20.7413 35.1023 18.3764 37.4041 15.8268C37.5372 15.672 37.6051 15.4716 37.5933 15.2678C37.5816 15.0639 37.4912 14.8726 37.3412 14.7341C37.1912 14.5956 36.9933 14.5207 36.7892 14.5252C36.5851 14.5298 36.3907 14.6133 36.2469 14.7583L36.2471 14.7586C33.7083 17.0759 31.3571 19.6279 28.9347 22.066C28.4069 22.7508 27.7953 23.3669 27.1145 23.8999C27.3342 24.4567 27.2252 24.4395 26.7874 23.8483L25.9137 22.9614C24.8232 21.7119 23.658 20.5295 22.4247 19.4207C21.7458 18.8856 21.1925 18.7259 20.4626 19.2891C19.3109 20.3251 18.2406 21.4481 17.2612 22.6482C15.236 24.7907 13.2154 26.937 11.1994 29.087C11.0949 29.0339 10.9761 29.0159 10.8606 29.0356C10.745 29.0554 10.639 29.1118 10.5581 29.1966C9.03104 30.7057 7.41924 32.1737 5.94537 33.7497C5.9467 33.6932 5.94688 33.6383 5.946 33.586C5.92239 32.251 5.90963 30.9152 5.89276 29.5816C8.31528 27.4585 10.4745 25.0527 12.3243 22.4155C12.7298 21.8579 11.9375 21.1183 11.5286 21.6821C9.7857 24.0059 7.89782 26.2173 5.87625 28.3032L5.82719 24.4516C8.02642 22.0737 9.95204 19.4136 11.9671 16.8844C12.3767 16.3695 11.6253 15.6689 11.2108 16.1877C9.412 18.4418 7.5027 20.6491 5.8083 22.9931C5.78967 21.5763 5.77013 20.1596 5.74967 18.7428C7.52066 16.9239 9.13486 14.9432 10.8025 13.0353C11.2546 12.5182 10.4721 11.792 10.0169 12.3106C8.59041 13.9393 7.10652 15.5361 5.72682 17.2117C5.69346 15.0586 5.65539 12.9056 5.61261 10.7527C6.96671 10.6478 8.32882 10.6549 9.68909 10.6774C16.9248 10.7886 24.1619 10.9153 31.4006 11.0576C34.7904 11.1164 38.2575 11.3803 41.6656 11.3209C41.7921 16.8338 41.9192 22.3462 42.0467 27.8582C42.0753 29.1735 42.1054 30.4889 42.137 31.8042C42.1693 33.2909 42.6529 35.2442 41.0661 35.9263L41.0656 35.9259C39.8502 36.2772 38.5832 36.4158 37.3206 36.3355C35.9197 36.3794 34.5187 36.3957 33.12 36.4181C27.5181 36.5047 21.9165 36.5046 16.3149 36.418C14.3694 36.3881 12.4247 36.3504 10.4809 36.3048C11.3588 35.4745 12.2288 34.6356 13.0984 33.7957C13.5957 33.3152 12.8021 32.5823 12.3072 33.0671ZM42.5214 9.54551C41.095 9.53092 39.6722 9.49886 38.2458 9.4734C35.2821 9.42389 32.3195 9.37344 29.358 9.32207C23.5424 9.22369 17.728 9.12585 11.915 9.02858C10.5083 9.00501 9.10075 8.96435 7.69056 8.97756C6.33963 8.99218 4.8624 9.40623 3.54333 9.33257C3.02568 9.30406 2.93486 9.73589 2.52668 8.92174C2.44585 8.68493 2.41905 8.43303 2.44824 8.18451C2.62992 7.69754 2.97421 7.84258 3.5387 7.81784C5.07392 7.74888 6.61276 7.68628 8.15522 7.63002C13.9796 7.41793 19.8076 7.29037 25.6393 7.24735C31.8476 7.20551 38.1587 7.59645 44.3401 6.86681C44.5135 7.27159 44.623 7.70086 44.6645 8.13926C44.6984 9.36014 43.5196 9.55674 42.5214 9.54551Z" fill="#4744C9"/>
</svg>
