<svg width="44" height="80" viewBox="0 0 44 80" fill="none" xmlns="http://www.w3.org/2000/svg">
<path d="M6.24063 7.78434C3.77987 11.4516 2.02632 15.5466 1.07031 19.8582C-0.789768 29.0744 0.688004 37.3775 3.52067 46.1707C6.20062 54.4899 11.2663 61.3375 17.5646 67.3152C23.9607 73.3859 31.9754 75.6789 39.9475 78.7357C40.0788 78.9668 40.2838 79.1472 40.5297 79.2481C40.7755 79.349 41.0481 79.3647 41.3039 79.2925L41.5682 79.3693C42.9155 79.82 43.7451 77.8443 42.4006 77.3069C35.5084 74.5519 28.2937 72.7823 22.2269 68.3143C15.8337 63.5596 10.7205 57.2926 7.34586 50.0752C3.81309 42.2251 1.87668 33.6493 2.57645 25.0577C2.87 21.0111 3.90446 17.0529 5.62832 13.3802C7.08762 10.2945 10.3287 3.39907 13.9477 2.35278C15.3267 1.95402 14.4644 -0.0986159 13.1036 0.294849C9.85218 1.23484 7.93341 5.14417 6.24063 7.78434Z" fill="#A8B3C1"/>
</svg>
